<?xml version="1.0" encoding="utf-8"?>
<!-- Generator: Adobe Illustrator 23.0.1, SVG Export Plug-In . SVG Version: 6.00 Build 0)  -->
<svg version="1.1" id="Layer_1" xmlns="http://www.w3.org/2000/svg" xmlns:xlink="http://www.w3.org/1999/xlink" x="0px" y="0px"
	 viewBox="0 0 512 512" style="enable-background:new 0 0 512 512;" xml:space="preserve">
<style type="text/css">
	.st0{fill:#999999;}
</style>
<path class="st0" d="M508.5,481.6l-129-129c-2.3-2.3-5.3-3.5-8.5-3.5h-10.3C395,312,416,262.5,416,208C416,93.1,322.9,0,208,0
	S0,93.1,0,208s93.1,208,208,208c54.5,0,104-21,141.1-55.2V371c0,3.2,1.3,6.2,3.5,8.5l129,129c4.7,4.7,12.3,4.7,17,0l9.9-9.9
	C513.2,493.9,513.2,486.3,508.5,481.6z M208,384c-97.3,0-176-78.7-176-176S110.7,32,208,32s176,78.7,176,176S305.3,384,208,384z"/>
</svg>
